<svg width="1476" height="445" viewBox="0 0 1476 445" fill="none" xmlns="http://www.w3.org/2000/svg">
<g opacity="0.63" clip-path="url(#clip0)">
<rect width="1476" height="445" fill="#5D1B6D" fill-opacity="0.35"/>
<path d="M1103.47 293.238C686.055 302.899 867.039 514.369 1226.93 587.029C908.563 587.029 173.43 466.478 173.43 319.068C173.43 171.659 208.677 26.3291 527.033 26.3291C845.395 26.3291 1103.47 145.828 1103.47 293.238Z" fill="#8A2D92" fill-opacity="0.9"/>
<path d="M1801.64 -49.5989C1801.64 121.26 1564.54 183.933 1309.19 183.933C1053.85 183.933 846.855 45.4247 846.855 -125.434C846.855 -296.294 1083.96 -358.967 1339.3 -358.967C1594.65 -358.967 1801.64 -220.458 1801.64 -49.5989Z" fill="#6F2176" fill-opacity="0.95"/>
<path d="M871.704 -397.519C1455.35 -374.051 1674.66 -70.3903 1633.54 95.6928C1592.43 261.776 1357.75 73.6351 774.1 50.167C190.454 26.6989 286.985 -29.5087 328.101 -195.592C-86.7362 -160.321 288.058 -420.99 871.704 -397.519Z" fill="#1B031F" fill-opacity="0.65"/>
<path opacity="0.1" d="M1152.38 -214.37C1470.88 -201.596 1562.57 47.3481 1540.13 137.738C1517.69 228.128 1389.63 125.735 1071.12 112.961C752.612 100.189 581.587 57.942 604.022 -32.4479C626.462 -122.838 833.87 -227.142 1152.38 -214.37Z" fill="#431444" fill-opacity="0.63"/>
<path d="M1120.86 -147.719C1329.91 -139.333 1168.79 61.8969 1149.01 141.597C1129.23 221.296 1050.56 132.384 841.517 123.999C632.476 115.611 339.103 82.1661 358.88 2.46857C378.656 -77.2311 911.819 -156.105 1120.86 -147.719Z" fill="#591764"/>
<path d="M1571.54 126.105C1788.7 283.489 1562.11 517.079 1304.94 574.787C1047.77 632.492 683.834 460.933 501.471 329.707C319.113 198.481 660.482 -77.3944 1067.18 -36.7448C1279.42 -15.5306 1465.49 49.2462 1571.54 126.105Z" fill="#59176B" fill-opacity="0.99"/>
<path opacity="0.1" d="M1551.59 352.942C1563.38 461.369 1467.82 538.284 1311.5 573.381C1155.17 608.478 927.239 511.019 823.086 424.326C600.901 239.386 899.692 -7.05485 1225.11 92.6699C1424.78 153.857 1540.61 251.94 1551.59 352.942Z" fill="#49144E"/>
<path d="M1762.13 300.043C1773.92 408.495 1647.22 514.941 1522.17 520.531C1349.65 528.238 1301.31 443.539 1296.25 373.731C1291.06 302.062 1431.11 117.192 1522.17 277.6C1589.45 396.107 1751.16 199.02 1762.13 300.043Z" fill="#963280" fill-opacity="0.91"/>
<path d="M1202.18 317.046C1039.13 443.389 351.519 601.844 -293.356 538.079C-938.231 474.314 -0.658647 440.721 -0.658647 293.417C-0.658647 146.114 206.36 26.7 524.217 26.7C660.911 26.7 786.461 48.7642 885.185 85.6536C1089.36 138.105 1302.83 239.063 1202.18 317.046Z" fill="#490E47" fill-opacity="0.74"/>
<path d="M187.854 348.897C-179.734 386.297 -716.832 372.636 -616.985 260.107C-451.871 74.0253 -52.3311 -50.4124 441.878 -25.349C636.33 -15.4892 822.406 45.7303 915.069 102.666C1128.18 233.609 748.734 291.829 187.854 348.897Z" fill="#6A306F" fill-opacity="0.45"/>
<path d="M71.455 -140.108C437.618 -112.527 938.116 7.17751 721.938 182.994C602.061 280.49 65.5594 362.664 -120.324 329.289C-428.445 273.967 -519.177 -184.595 71.455 -140.108Z" fill="#8A2D92" fill-opacity="0.9"/>
<path d="M337.757 226.77C120.622 351.427 -571.557 429.867 -869.956 345.875C-1168.36 261.882 -959.983 47.2638 -742.848 -77.3931C-525.716 -202.048 -238.159 -272.143 60.2442 -188.15C358.643 -104.159 554.889 102.115 337.757 226.77Z" fill="#3B0F3F" fill-opacity="0.38"/>
<path d="M1266.13 317.88C989.577 421.548 329.18 464.717 126.177 377.207C-76.8265 289.696 24.7137 78.9424 301.264 -24.725C577.81 -128.391 1107.9 -154.409 1310.9 -66.8991C1513.91 20.6112 1542.67 214.214 1266.13 317.88Z" fill="#1B031F" fill-opacity="0.65"/>
</g>
<defs>
<clipPath id="clip0">
<rect width="1476" height="445" fill="white"/>
</clipPath>
</defs>
</svg>
