<svg width="146" height="123" viewBox="0 0 146 123" fill="none" xmlns="http://www.w3.org/2000/svg">
<g clip-path="url(#clip0)">
<path d="M81.7855 73.3567L82.8071 72.6853C92.2962 66.4351 98.1966 57.1586 99.2759 47.1623C113.595 46.1993 124.9 36.008 124.9 23.6187C124.9 19.3767 123.558 15.2159 121.02 11.5859C120.423 10.7315 119.122 10.4498 118.115 10.9564C117.108 11.4631 116.776 12.5663 117.373 13.4207C119.523 16.4957 120.66 20.0219 120.66 23.6187C120.66 33.9725 111.346 42.516 99.4523 43.538C99.4469 42.9706 99.4311 42.4024 99.3943 41.8329L99.3918 41.8019L98.2769 28.6704C98.1972 27.7298 97.2739 27.0013 96.1624 27.0013H73.7958C73.5739 25.9009 73.452 24.772 73.452 23.6187C73.452 12.5786 84.0407 3.59675 97.056 3.59675C102.485 3.59675 107.785 5.19827 111.98 8.10612C112.888 8.73483 114.223 8.62046 114.964 7.85147C115.705 7.08225 115.57 5.94951 114.663 5.32104C109.713 1.88973 103.46 0 97.0557 0C81.7024 0 69.2115 10.5953 69.2115 23.6187C69.2115 24.7672 69.3107 25.8961 69.4981 27.0013H45.8902C44.7191 27.0013 43.7701 27.8065 43.7701 28.7997C43.7701 29.7929 44.7191 30.5981 45.8902 30.5981H70.4528C73.7771 39.6964 83.4231 46.4583 95.0159 47.1738C94.6244 50.4286 93.6664 53.5955 92.1924 56.575C89.6548 54.4553 84.9889 51.6009 78.2636 51.6009C76.6209 51.6009 74.9785 51.8369 73.3409 52.2349C73.4119 51.7338 73.4515 51.2269 73.4515 50.7145C73.4515 43.773 66.7937 38.1258 58.6106 38.1258C50.4276 38.1258 43.7698 43.773 43.7698 50.7145C43.7698 51.0178 43.7859 51.3177 43.8105 51.616C37.5104 51.8278 33.141 54.4997 30.6794 56.5683C28.4422 52.0429 27.3918 47.0868 27.714 42.0444L28.6859 30.5983H36.7536C37.9248 30.5983 38.8738 29.7931 38.8738 28.7999C38.8738 27.8067 37.9248 27.0015 36.7536 27.0015H26.7128C25.601 27.0015 24.678 27.73 24.5983 28.6707L23.4834 41.8022L23.4809 41.8331C22.7089 53.8021 28.9095 65.3357 40.0678 72.6856L41.0894 73.357C50.4038 79.4712 55.0791 82.5402 55.0791 98.7002V105.095C55.0791 108.891 51.4404 111.979 46.9681 111.979H29.9746C25.1119 111.979 21.1555 115.336 21.1555 119.463C21.1555 121.286 22.9036 122.769 25.0523 122.769H73.0277C74.1989 122.769 75.1478 121.964 75.1478 120.971C75.1478 119.978 74.1989 119.172 73.0277 119.172H25.4085C25.584 117.164 27.5651 115.576 29.9749 115.576H46.9684C53.779 115.576 59.3196 110.874 59.3196 105.094V98.6999C59.3196 88.7662 57.4084 83.0845 54.1024 78.9403C56.5886 79.5652 59.0547 79.8983 61.4372 79.8983C63.8055 79.8983 66.2654 79.5779 68.7479 78.9713C65.4572 83.1128 63.5556 88.7909 63.5556 98.7002V105.095C63.5556 110.874 69.0965 115.576 75.9068 115.576H92.9003C95.3102 115.576 97.2912 117.164 97.4667 119.173H82.1931C81.022 119.173 80.073 119.978 80.073 120.971C80.073 121.964 81.022 122.769 82.1931 122.769H97.8229C99.9719 122.769 101.72 121.286 101.72 119.463C101.72 115.336 97.7633 111.979 92.9003 111.979H75.9068C71.4345 111.979 67.7958 108.891 67.7958 105.095V98.7002C67.7958 82.54 72.4711 79.471 81.7855 73.3567ZM74.9338 30.5981H94.189L95.1609 42.0441C95.1937 42.5551 95.2075 43.0649 95.2123 43.5737C85.8937 42.9596 78.0759 37.74 74.9338 30.5981ZM58.6109 41.7223C64.4562 41.7223 69.2115 45.756 69.2115 50.7142C69.2115 51.782 68.9927 52.8166 68.567 53.8002C66.2368 54.7323 63.9256 55.8578 61.6472 56.968C59.7809 57.8773 57.9675 58.7606 56.2508 59.4805C52.3846 58.7414 49.4105 56.2702 48.3917 53.1252C48.3795 53.0763 48.3654 53.0279 48.3484 52.9804C48.1288 52.2551 48.0101 51.4959 48.0101 50.7142C48.0103 45.756 52.7656 41.7223 58.6109 41.7223ZM50.3249 61.1731C44.0381 61.9538 37.226 60.2461 33.6651 59.1337C35.6495 57.4804 39.3422 55.1984 44.6128 55.1984C44.6524 55.1984 44.6936 55.2015 44.7332 55.202C45.8224 57.6442 47.7816 59.7289 50.3249 61.1731ZM44.9042 71.314C44.5039 71.0498 42.6685 69.8444 42.6685 69.8444C39.8168 67.9662 37.3255 65.7839 35.2334 63.3762C38.4921 64.2109 42.6445 64.9739 46.9401 64.9739C48.76 64.9739 50.6051 64.837 52.4185 64.5106C54.0507 64.2169 55.7205 63.6752 57.4313 62.9906C57.4381 62.988 57.4446 62.9851 57.4514 62.9825C59.4935 62.1641 61.5935 61.1422 63.7591 60.0869C66.165 58.9146 68.6108 57.7236 71.004 56.81C71.0617 56.7903 71.1182 56.769 71.1739 56.745C73.6281 55.8211 76.0247 55.1977 78.2636 55.1977C84.5812 55.1977 88.5998 58.4307 90.1973 60.0264C87.7009 63.7776 84.3302 67.1284 80.2067 69.8446C80.2067 69.8446 78.3704 71.0507 77.9699 71.3152C72.58 74.4652 66.558 76.3018 61.4372 76.3018C56.3167 76.3013 50.2944 74.4645 44.9042 71.314Z" fill="#504F4F"/>
<path d="M95.2183 9.11173V12.9483C95.2183 13.9415 96.1672 14.7466 97.3384 14.7466C98.5095 14.7466 99.4585 13.9415 99.4585 12.9483V9.11173C99.4585 8.11855 98.5095 7.31335 97.3384 7.31335C96.1672 7.31335 95.2183 8.11855 95.2183 9.11173Z" fill="#504F4F"/>
<path d="M90.7098 16.2459C91.0693 16.2459 91.4343 16.1682 91.7678 16.0047C92.7818 15.5081 93.1292 14.4082 92.5438 13.5481L90.2823 10.2256C89.6972 9.3653 88.3997 9.07061 87.3863 9.56744C86.3723 10.064 86.0249 11.1639 86.6103 12.024L88.8718 15.3465C89.2644 15.9234 89.977 16.2459 90.7098 16.2459Z" fill="#504F4F"/>
<path d="M104.419 38.1888C104.812 38.7658 105.525 39.0883 106.257 39.0883C106.617 39.0883 106.982 39.0106 107.315 38.847C108.329 38.3504 108.677 37.2506 108.091 36.3905L105.83 33.068C105.245 32.2079 103.947 31.9132 102.934 32.4098C101.92 32.9064 101.572 34.0063 102.158 34.8664L104.419 38.1888Z" fill="#504F4F"/>
<path d="M87.6848 19.4565C88.2702 18.5964 87.9228 17.4965 86.9088 16.9999L82.992 15.0817C81.9772 14.5848 80.6811 14.8798 80.0959 15.7399C79.5105 16.6 79.8579 17.6999 80.8719 18.1965L84.7887 20.1147C85.1229 20.2783 85.4872 20.3559 85.8468 20.3559C86.5792 20.3562 87.2922 20.0334 87.6848 19.4565Z" fill="#504F4F"/>
<path d="M112.776 33.5442C113.509 33.5442 114.221 33.2214 114.614 32.6448C115.199 31.7847 114.852 30.6848 113.838 30.1882L109.921 28.2699C108.907 27.7731 107.61 28.068 107.025 28.9281C106.44 29.7882 106.787 30.8881 107.801 31.3847L111.718 33.303C112.052 33.4663 112.416 33.5442 112.776 33.5442Z" fill="#504F4F"/>
<path d="M84.0637 22.3795H79.5408C78.3696 22.3795 77.4207 23.1847 77.4207 24.1779C77.4207 25.1711 78.3696 25.9763 79.5408 25.9763H84.0637C85.2348 25.9763 86.1838 25.1711 86.1838 24.1779C86.1838 23.1847 85.2348 22.3795 84.0637 22.3795Z" fill="#504F4F"/>
<path d="M117.279 24.1779C117.279 23.1847 116.33 22.3795 115.159 22.3795H110.636C109.465 22.3795 108.516 23.1847 108.516 24.1779C108.516 25.1711 109.465 25.9763 110.636 25.9763H115.159C116.33 25.9763 117.279 25.1711 117.279 24.1779Z" fill="#504F4F"/>
<path d="M107.007 19.4316C107.399 20.0085 108.112 20.331 108.845 20.331C109.204 20.331 109.569 20.2533 109.903 20.0898L113.819 18.1715C114.833 17.6749 115.181 16.575 114.595 15.7149C114.01 14.8546 112.713 14.5599 111.699 15.0567L107.783 16.975C106.769 17.4716 106.421 18.5714 107.007 19.4316Z" fill="#504F4F"/>
<path d="M107.284 9.52398C106.27 9.02715 104.973 9.32185 104.388 10.1822L102.126 13.5046C101.541 14.3647 101.888 15.4646 102.902 15.9612C103.236 16.1247 103.601 16.2024 103.96 16.2024C104.693 16.2024 105.406 15.8799 105.798 15.303L108.06 11.9806C108.645 11.1205 108.298 10.0206 107.284 9.52398Z" fill="#504F4F"/>
</g>
<defs>
<clipPath id="clip0">
<rect width="144.733" height="122.769" fill="white" transform="translate(0.661133)"/>
</clipPath>
</defs>
</svg>
