<svg width="129" height="128" viewBox="0 0 129 128" fill="none" xmlns="http://www.w3.org/2000/svg">
<g clip-path="url(#clip0)">
<path d="M127.763 62.077C127.177 61.6842 126.432 61.6049 125.775 61.8657L104.436 70.3195C103.626 70.64 103.094 71.4167 103.093 72.2808H98.8256V59.6C98.8256 56.0983 95.9596 53.2596 92.424 53.2596H79.6206H39.0767H19.8717C16.3362 53.2596 13.4701 56.0983 13.4701 59.6V60.8935L3.47495 57.5944C2.35679 57.2256 1.14847 57.8242 0.77611 58.9316C0.703558 59.1472 0.666748 59.3728 0.666748 59.6V84.9616C0.666748 86.1287 1.6222 87.075 2.80064 87.075C3.02976 87.0748 3.25729 87.0386 3.47495 86.9672L13.4701 83.6681V110.323C13.4701 113.825 16.3362 116.663 19.8717 116.663H92.424C95.9596 116.663 98.8256 113.825 98.8256 110.323V97.6423H103.093C103.093 98.507 103.625 99.285 104.436 99.6057L125.775 108.06C126.432 108.32 127.177 108.241 127.763 107.848C128.35 107.455 128.701 106.798 128.7 106.096V63.8269C128.7 63.1258 128.349 62.4704 127.763 62.077ZM13.4701 79.2108L4.93453 82.0302V62.5314L13.4701 65.3508V79.2108ZM94.5579 110.323C94.5579 111.49 93.6024 112.437 92.424 112.437H19.8717C18.6933 112.437 17.7379 111.49 17.7379 110.323V59.6C17.7379 58.4329 18.6933 57.4866 19.8717 57.4866H92.424C93.6024 57.4866 94.5579 58.4329 94.5579 59.6V110.323ZM103.093 93.4154H98.8256V76.5077H103.093V93.4154ZM124.432 102.975L107.361 96.2115V73.7116L124.432 66.9485V102.975Z" fill="#4A4A4A"/>
<path d="M60.4156 32.1251C60.4156 20.4527 50.8619 10.9905 39.0767 10.9905C27.2915 10.9905 17.7378 20.4527 17.7378 32.1251C17.7378 43.7975 27.2915 53.2597 39.0767 53.2597C50.8565 53.2467 60.4028 43.7922 60.4156 32.1251ZM39.0767 49.0328C29.6486 49.0328 22.0056 41.4629 22.0056 32.1251C22.0056 22.7873 29.6486 15.2174 39.0767 15.2174C48.5047 15.2174 56.1478 22.7873 56.1478 32.1251C56.1371 41.4586 48.5005 49.0222 39.0767 49.0328Z" fill="#4A4A4A"/>
<path d="M94.5578 38.4655C94.5578 30.2948 87.8702 23.6713 79.6206 23.6713C71.371 23.6713 64.6833 30.2948 64.6833 38.4655C64.6833 46.6361 71.371 53.2597 79.6206 53.2597C87.8662 53.2504 94.5485 46.6322 94.5578 38.4655ZM79.6206 49.0328C73.7281 49.0328 68.9511 44.3015 68.9511 38.4655C68.9511 32.6294 73.7281 27.8982 79.6206 27.8982C85.513 27.8982 90.29 32.6294 90.29 38.4655C90.2831 44.2986 85.5101 49.0259 79.6206 49.0328Z" fill="#4A4A4A"/>
<path d="M77.4867 65.9404H34.8089C33.6305 65.9404 32.675 66.8867 32.675 68.0539V101.869C32.675 103.036 33.6305 103.983 34.8089 103.983H77.4867C78.6652 103.983 79.6206 103.036 79.6206 101.869V68.0539C79.6206 66.8867 78.6652 65.9404 77.4867 65.9404ZM75.3528 99.7558H36.9428V70.1674H75.3528V99.7558Z" fill="#4A4A4A"/>
</g>
<defs>
<clipPath id="clip0">
<rect width="128.033" height="126.808" fill="white" transform="translate(0.666748 0.423096)"/>
</clipPath>
</defs>
</svg>
