<svg width="36" height="45" viewBox="0 0 36 45" fill="none" xmlns="http://www.w3.org/2000/svg">
<path d="M22.1561 12.968C22.156 11.9466 21.9121 10.9481 21.4554 10.0989C20.9986 9.24974 20.3495 8.5879 19.5901 8.19712C18.8307 7.80634 17.995 7.70417 17.1889 7.90352C16.3827 8.10287 15.6422 8.5948 15.0611 9.31709C14.4799 10.0394 14.0841 10.9596 13.9238 11.9614C13.7635 12.9632 13.8458 14.0016 14.1604 14.9452C14.475 15.8889 15.0077 16.6954 15.6911 17.2628C16.3746 17.8303 17.1781 18.1332 18 18.1332C19.102 18.1315 20.1584 17.5868 20.9375 16.6184C21.7166 15.6501 22.1549 14.3373 22.1561 12.968ZM14.8284 12.968C14.8285 12.1885 15.0146 11.4266 15.3632 10.7785C15.7117 10.1305 16.2071 9.62544 16.7867 9.32724C17.3662 9.02904 18.0039 8.9511 18.6191 9.10325C19.2343 9.2554 19.7994 9.63082 20.2429 10.182C20.6864 10.7333 20.9885 11.4355 21.1108 12.2C21.2331 12.9645 21.1703 13.757 20.9302 14.4771C20.6901 15.1972 20.2836 15.8127 19.7621 16.2458C19.2405 16.6788 18.6273 16.9099 18 16.9099C17.1591 16.9087 16.3528 16.493 15.7582 15.754C15.1636 15.015 14.8292 14.013 14.8284 12.968Z" fill="#F041FF"/>
<path d="M34.6861 42.3422L30.6738 29.2711C30.6382 29.1554 30.5752 29.0558 30.4931 28.9856C30.411 28.9153 30.3136 28.8777 30.214 28.8776H22.6202C22.6666 28.7836 22.7127 28.6924 22.7591 28.598C25.681 22.5867 27.1514 17.3282 27.1303 12.9707C27.1307 9.96157 26.1692 7.07547 24.4572 4.94732C22.7451 2.81918 20.4229 1.62331 18.0014 1.6228C15.5798 1.62229 13.2573 2.81718 11.5447 4.94461C9.83209 7.07203 8.86973 9.95773 8.86932 12.9669C8.84823 17.3282 10.3186 22.5874 13.2405 28.598C13.2869 28.6934 13.333 28.7846 13.3794 28.8776H5.7857C5.686 28.8777 5.58867 28.9153 5.50656 28.9856C5.42445 29.0558 5.36144 29.1554 5.32585 29.2711L1.3141 42.3422C1.28552 42.4348 1.27551 42.5347 1.28494 42.6332C1.29437 42.7317 1.32296 42.8258 1.36823 42.9075C1.4135 42.9892 1.4741 43.056 1.54479 43.102C1.61548 43.1481 1.69413 43.1721 1.77395 43.1719H34.2263C34.3061 43.1721 34.3847 43.1481 34.4554 43.102C34.5261 43.056 34.5867 42.9892 34.632 42.9075C34.6773 42.8258 34.7058 42.7317 34.7153 42.6332C34.7247 42.5347 34.7147 42.4348 34.6861 42.3422ZM9.85398 12.9679C9.85416 11.6386 10.0651 10.3223 10.4746 9.09424C10.8842 7.86618 11.4844 6.75038 12.2409 5.81056C12.9975 4.87074 13.8956 4.12529 14.884 3.61679C15.8724 3.10828 16.9317 2.84668 18.0015 2.84691C19.0713 2.84714 20.1305 3.1092 21.1188 3.61812C22.1071 4.12705 23.005 4.87288 23.7613 5.81303C24.5176 6.75318 25.1175 7.86923 25.5267 9.09747C25.9359 10.3257 26.1464 11.6421 26.1462 12.9714C26.1884 21.6591 19.6522 32.3743 18.0001 34.9438C16.348 32.3753 9.81151 21.663 9.85398 12.9679ZM17.6252 36.3068C17.6714 36.3743 17.7289 36.4285 17.7936 36.4657C17.8583 36.5029 17.9288 36.5222 18.0001 36.5222C18.0714 36.5222 18.1419 36.5029 18.2066 36.4657C18.2713 36.4285 18.3288 36.3743 18.375 36.3068C19.6818 34.3286 20.8933 32.2561 22.0031 30.1001H29.8745L30.5045 32.1534L15.1226 38.9514L9.63995 30.0991H13.9965C15.1065 32.2554 16.3182 34.3283 17.6252 36.3068ZM15.1055 40.2561H15.1083L24.2846 36.202L27.8439 41.9487H11.2782L15.1055 40.2561ZM6.12517 30.0991H8.39767L14.147 39.3824L8.34113 41.9483H2.48832L6.12517 30.0991ZM29.0873 41.9487L25.2597 35.7689L30.8566 33.2956L33.5125 41.9487H29.0873Z" fill="#F041FF"/>
</svg>
