<svg width="35" height="45" viewBox="0 0 35 45" fill="none" xmlns="http://www.w3.org/2000/svg">
<path d="M17.5 45C12.8256 45 8.43091 42.6596 5.12566 38.4099C1.82042 34.1602 0 28.51 0 22.5C0 16.49 1.82035 10.8397 5.12566 6.59014C8.43098 2.34053 12.8256 0 17.5 0C22.1744 0 26.5691 2.34045 29.8743 6.59014C33.1796 10.8398 35 16.49 35 22.5C35 28.51 33.1797 34.1603 29.8743 38.4099C26.569 42.6595 22.1744 45 17.5 45ZM17.5 1.33663C13.1033 1.33663 8.9697 3.53798 5.86073 7.53523C2.75176 11.5325 1.0396 16.8471 1.0396 22.5C1.0396 28.1529 2.75176 33.4675 5.86073 37.4648C8.9697 41.462 13.1033 43.6634 17.5 43.6634C21.8967 43.6634 26.0303 41.462 29.1393 37.4648C32.2482 33.4675 33.9604 28.1529 33.9604 22.5C33.9604 16.8471 32.2482 11.5325 29.1393 7.53523C26.0303 3.53798 21.8967 1.33663 17.5 1.33663Z" fill="#8A2D92" fill-opacity="0.9"/>
<path d="M24.1839 33.5438C23.6747 33.5438 23.196 33.2889 22.8359 32.826L19.603 28.6694H12.7224V31.0932C12.7224 32.4444 11.8674 33.5437 10.8164 33.5437C9.76546 33.5437 8.91049 32.4444 8.91049 31.0932V28.6694H7.97145C7.11156 28.6694 6.41205 27.77 6.41205 26.6645C6.41205 25.5589 7.11156 24.6595 7.97145 24.6595H8.91049V20.8891H7.97145C7.11156 20.8891 6.41205 19.9898 6.41205 18.8842C6.41205 17.7786 7.11156 16.8792 7.97145 16.8792H8.91049V13.9069C8.91049 12.9123 9.37236 12.0236 10.087 11.6429C10.8019 11.2623 11.6171 11.4708 12.1641 12.1741L15.8236 16.8791H18.9853C19.2724 16.8791 19.5051 17.1784 19.5051 17.5475C19.5051 17.9165 19.2724 18.2158 18.9853 18.2158H15.6083C15.4705 18.2158 15.3382 18.1454 15.2408 18.02L11.429 13.1192C11.1804 12.7996 10.8098 12.7047 10.4849 12.8778C10.16 13.0507 9.9501 13.4548 9.9501 13.9068V17.5475C9.9501 17.9165 9.71737 18.2158 9.4303 18.2158H7.97145C7.6848 18.2158 7.45165 18.5155 7.45165 18.8841C7.45165 19.2526 7.6848 19.5524 7.97145 19.5524H9.4303C9.71737 19.5524 9.9501 19.8516 9.9501 20.2207V25.3277C9.9501 25.6968 9.71737 25.996 9.4303 25.996H7.97145C7.6848 25.996 7.45165 26.2958 7.45165 26.6644C7.45165 27.0329 7.6848 27.3327 7.97145 27.3327H9.4303C9.71737 27.3327 9.9501 27.6319 9.9501 28.001V31.0931C9.9501 31.7073 10.3387 32.2069 10.8164 32.2069C11.2942 32.2069 11.6828 31.7073 11.6828 31.0931V28.001C11.6828 27.6319 11.9155 27.3327 12.2026 27.3327H19.8184C19.9562 27.3327 20.0885 27.4031 20.1859 27.5285L23.571 31.8807C23.7347 32.0911 23.9523 32.207 24.1839 32.207C24.298 32.207 24.4095 32.1785 24.5152 32.1222C24.8401 31.9492 25.0499 31.5452 25.0499 31.0932V28.0011C25.0499 27.632 25.2827 27.3328 25.5697 27.3328H27.0286C27.3152 27.3328 27.5484 27.033 27.5484 26.6645C27.5484 26.2959 27.3152 25.9961 27.0286 25.9961H25.5697C25.2827 25.9961 25.0499 25.6969 25.0499 25.3278V20.2208C25.0499 19.8517 25.2827 19.5525 25.5697 19.5525H27.0286C27.3152 19.5525 27.5484 19.2527 27.5484 18.8842C27.5484 18.5156 27.3152 18.2159 27.0286 18.2159H25.5697C25.2827 18.2159 25.0499 17.9166 25.0499 17.5475V13.9069C25.0499 13.2927 24.6613 12.793 24.1836 12.793C23.7059 12.793 23.3173 13.2927 23.3173 13.9069V17.5475C23.3173 17.9166 23.0845 18.2159 22.7975 18.2159H21.0647C20.7776 18.2159 20.5449 17.9166 20.5449 17.5475C20.5449 17.1785 20.7776 16.8792 21.0647 16.8792H22.2777V13.9069C22.2777 12.5557 23.1326 11.4564 24.1836 11.4564C25.2346 11.4564 26.0895 12.5557 26.0895 13.9069V16.8792H27.0286C27.8885 16.8792 28.588 17.7786 28.588 18.8842C28.588 19.9898 27.8885 20.8891 27.0286 20.8891H26.0895V24.6595H27.0286C27.8885 24.6595 28.588 25.5589 28.588 26.6645C28.588 27.77 27.8885 28.6694 27.0286 28.6694H26.0895V31.0932C26.0895 32.0878 25.6277 32.9765 24.913 33.3572C24.6805 33.4809 24.4352 33.5438 24.1839 33.5438ZM22.7975 25.9961H21.6598C21.5219 25.9961 21.3897 25.9257 21.2922 25.8004L17.3201 20.6934C17.1714 20.5022 17.1269 20.2148 17.2074 19.9651C17.2878 19.7153 17.4774 19.5525 17.6876 19.5525H22.7975C23.0846 19.5525 23.3173 19.8517 23.3173 20.2208V25.3278C23.3173 25.6969 23.0846 25.9961 22.7975 25.9961ZM21.875 24.6595H22.2777V20.8891H18.9425L21.875 24.6595ZM17.7392 25.9961H12.2026C11.9156 25.9961 11.6828 25.6969 11.6828 25.3278V20.2208C11.6828 19.8517 11.9156 19.5525 12.2026 19.5525H13.767C13.9049 19.5525 14.0371 19.6229 14.1346 19.7483L18.1067 24.8553C18.2554 25.0464 18.2998 25.3339 18.2194 25.5836C18.1389 25.8333 17.9494 25.9961 17.7392 25.9961ZM12.7224 24.6595H16.4842L13.5517 20.8891H12.7224V24.6595Z" fill="#8A2D92" fill-opacity="0.9"/>
<path d="M16.7553 40.1061C16.7455 40.1061 16.7358 40.1058 16.7259 40.1051C9.4697 39.5857 3.78571 31.8526 3.78571 22.5C3.78571 12.7773 9.93794 4.86731 17.5 4.86731C25.0622 4.86731 31.2144 12.7773 31.2144 22.5C31.2144 31.4571 26.0034 38.9869 19.093 40.015C18.8075 40.0569 18.55 39.7945 18.5169 39.4279C18.4839 39.0612 18.6884 38.7297 18.9735 38.6872C25.3593 37.7371 30.1748 30.7781 30.1748 22.4999C30.1748 13.5143 24.4889 6.20385 17.5 6.20385C10.5112 6.20385 4.82531 13.5143 4.82531 22.4999C4.82531 31.1436 10.0782 38.2905 16.7838 38.7705C17.0705 38.791 17.2899 39.1064 17.2739 39.4749C17.2585 39.8309 17.0292 40.1061 16.7553 40.1061Z" fill="#8A2D92" fill-opacity="0.9"/>
</svg>
