<svg width="138" height="108" viewBox="0 0 138 108" fill="none" xmlns="http://www.w3.org/2000/svg">
<g clip-path="url(#clip0)">
<path d="M17.5268 47.7697L19.2 46.6255V104.507H15.4454C14.3343 104.507 13.434 105.211 13.434 106.08C13.434 106.95 14.3343 107.654 15.4454 107.654H122.988C124.099 107.654 124.999 106.95 124.999 106.08C124.999 105.211 124.099 104.507 122.988 104.507H119.233V76.6028C119.233 75.7336 118.333 75.0288 117.222 75.0288C116.111 75.0288 115.211 75.7336 115.211 76.6028V104.507H23.2228V43.8741L69.2167 12.4177L115.211 43.8744V69.2575C115.211 70.1268 116.111 70.8315 117.222 70.8315C118.333 70.8315 119.233 70.1268 119.233 69.2575V46.6257L120.906 47.7699C123.691 49.6736 127.934 49.4503 130.367 47.2719C132.805 45.0889 132.521 41.7774 129.731 39.8688L119.233 32.6893V9.17228H119.766C121.767 9.17228 123.396 7.89797 123.396 6.33153V3.04376C123.396 1.47731 121.768 0.203003 119.766 0.203003H101.191C99.1894 0.203003 97.561 1.47731 97.561 3.04376V6.33174C97.561 7.89797 99.1894 9.17249 101.191 9.17249H101.724V20.7143L73.6289 1.49914C71.1135 -0.220928 67.3198 -0.221137 64.8045 1.49914L8.70243 39.8688C5.91223 41.777 5.62715 45.0882 8.06656 47.2721C10.5009 49.4518 14.7452 49.6723 17.5268 47.7697ZM101.584 6.02428V3.351H119.373V6.02428C117.257 6.02428 103.633 6.02428 101.584 6.02428ZM115.211 9.17228V29.938L105.747 23.4655V9.17228H115.211ZM11.3497 42.2391L67.4515 3.86958C68.4577 3.18143 69.9751 3.18143 70.9813 3.86958C73.6592 5.70088 113.873 33.2041 115.898 34.5892L127.083 42.2391C128.199 43.0028 128.313 44.3268 127.337 45.2003C126.365 46.0717 124.667 46.1611 123.553 45.3995C121.353 43.8943 73.4572 11.1373 71.2822 9.64973C70.1046 8.84447 68.3282 8.84447 67.1503 9.64994L14.8796 45.3995C13.766 46.1611 12.0682 46.0717 11.0952 45.2003C10.1214 44.3281 10.2316 43.004 11.3497 42.2391Z" fill="#4A4A4A"/>
<path d="M62.4188 83.2224C58.6706 86.1558 58.6706 90.9281 62.419 93.8614C64.2928 95.328 66.7548 96.0612 69.2167 96.0612C71.6787 96.0612 74.1403 95.328 76.0147 93.8614C79.7629 90.9281 79.7629 86.1558 76.0147 83.2224H76.0144C72.266 80.2896 66.1669 80.2894 62.4188 83.2224ZM73.1701 91.6354C70.9897 93.341 67.4432 93.3412 65.2637 91.6354C63.0839 89.9296 63.0839 87.1541 65.2634 85.4485C66.3533 84.5956 67.7849 84.1692 69.2167 84.1692C70.6486 84.1692 72.0801 84.5956 73.1698 85.4483C75.3496 87.1541 75.3496 89.9298 73.1701 91.6354Z" fill="#4A4A4A"/>
<path d="M88.4298 79.9265C90.7882 78.081 90.7885 75.0943 88.4301 73.2486C77.8255 64.9504 60.608 64.9496 50.0031 73.2486C47.6447 75.0941 47.6444 78.0807 50.0028 79.9263C52.3604 81.7719 56.1783 81.7723 58.5365 79.9263C64.4291 75.3149 74.0036 75.3151 79.8964 79.9263C82.2543 81.7717 86.0714 81.7725 88.4298 79.9265ZM55.6918 77.7007C54.9066 78.3154 53.6338 78.316 52.8475 77.7005C52.0617 77.0853 52.0614 76.09 52.8477 75.4746C61.8797 68.4065 76.5529 68.4063 85.5857 75.4746C86.3718 76.09 86.3718 77.0849 85.5854 77.7005C84.7999 78.3154 83.5271 78.3156 82.7413 77.7005C75.2758 71.859 63.1571 71.8588 55.6918 77.7007Z" fill="#4A4A4A"/>
<path d="M98.1778 69.4486C100.536 67.6032 100.536 64.6164 98.1781 62.7706C82.1601 50.2355 56.2757 50.2336 40.255 62.7706C37.8966 64.6159 37.8963 67.6028 40.2548 69.4483C42.6105 71.292 46.43 71.2941 48.7884 69.4483C60.0879 60.606 78.3436 60.6046 89.6444 69.4483C91.9999 71.2918 95.8194 71.2945 98.1778 69.4486ZM69.2167 59.6734C69.638 59.6734 56.5591 58.9155 45.9438 67.2225C45.1588 67.837 43.8857 67.8378 43.0994 67.2225C42.3134 66.6072 42.3134 65.612 43.0997 64.9966C57.5458 53.692 80.8857 53.6901 95.334 64.9966C96.12 65.612 96.12 66.6069 95.3337 67.2225C94.5484 67.837 93.2754 67.8376 92.4896 67.2225C86.2682 62.3544 78.003 59.6734 69.2167 59.6734Z" fill="#4A4A4A"/>
<path d="M107.926 58.9702C110.284 57.1249 110.284 54.138 107.926 52.2923C98.8536 45.1927 86.8362 40.7943 74.0877 39.9068C72.9833 39.8306 72.0042 40.4694 71.906 41.3351C71.8076 42.201 72.625 42.9654 73.7316 43.0424C85.5414 43.8644 96.6751 47.9398 105.081 54.5181C105.866 55.1324 105.869 56.1274 105.081 56.7437C104.296 57.3582 103.023 57.3593 102.237 56.7437C83.9916 42.4661 54.4616 42.4501 36.1957 56.7437C35.41 57.3589 34.1377 57.3591 33.3514 56.7437C32.5653 56.1284 32.5653 55.1332 33.3516 54.5179C41.7577 47.9398 52.8911 43.8644 64.7015 43.0422C65.8078 42.9652 66.6252 42.2008 66.5268 41.3349C66.4286 40.4692 65.4537 39.8304 64.3448 39.9066C51.5963 40.7941 39.5789 45.1927 30.507 52.2918C28.1486 54.1372 28.1483 57.124 30.5067 58.9696C32.8646 60.8154 36.682 60.8152 39.0404 58.9696C55.6789 45.949 82.7531 45.9488 99.3921 58.9696C101.748 60.8139 105.567 60.816 107.926 58.9702Z" fill="#4A4A4A"/>
</g>
<defs>
<clipPath id="clip0">
<rect width="137.311" height="107.452" fill="white" transform="translate(0.561035 0.203003)"/>
</clipPath>
</defs>
</svg>
