<svg width="29" height="37" viewBox="0 0 29 37" fill="none" 
 xmlns="http://www.w3.org/2000/svg">
 <path d="M13.7553 36.1061C13.7455 36.1061 13.7357 36.1058 13.7259 36.1051C6.46964 35.5857 0.785645 27.8526 0.785645 18.5C0.785645 8.77733 6.93788 0.86731 14.5 0.86731C22.0621 0.86731 28.2143 8.77733 28.2143 18.5C28.2143 27.4571 23.0033 34.9869 16.093 36.015C15.8074 36.0569 15.5499 35.7945 15.5168 35.4279C15.4838 35.0612 15.6883 34.7297 15.9734 34.6872C22.3592 33.7371 27.1747 26.7781 27.1747 18.4999C27.1747 9.51426 21.4889 2.20385 14.5 2.20385C7.51112 2.20385 1.82525 9.51426 1.82525 18.4999C1.82525 27.1436 7.07809 34.2905 13.7837 34.7705C14.0704 34.791 14.2898 35.1064 14.2738 35.4749C14.2584 35.8309 14.0291 36.1061 13.7553 36.1061Z" fill="#8A2D92" fill-opacity="0.9"/>
</svg>
